
<svg xmlns="http://www.w3.org/2000/svg" xmlns:xlink="http://www.w3.org/1999/xlink" width="270" zoomAndPan="magnify" viewBox="0 0 202.5 74.999997" height="100" preserveAspectRatio="xMidYMid meet" version="1.0"><defs><g/><clipPath id="5c2a45f663"><path d="M 23.75 1.785156 L 64.316406 1.785156 L 64.316406 73.90625 L 23.75 73.90625 Z M 23.75 1.785156 " clip-rule="nonzero"/></clipPath></defs><g clip-path="url(#5c2a45f663)"><path fill="#000000" d="M 48.3125 34.054688 L 39.753906 34.054688 C 35.140625 34.054688 31.386719 30.316406 31.386719 25.730469 C 31.386719 21.144531 35.140625 17.410156 39.753906 17.410156 L 48.3125 17.410156 C 52.925781 17.410156 56.679688 21.144531 56.679688 25.730469 L 64.316406 25.730469 C 64.316406 16.960938 57.136719 9.824219 48.3125 9.824219 L 47.851562 9.824219 L 47.851562 1.8125 L 40.214844 1.8125 L 40.214844 9.824219 L 39.753906 9.824219 C 30.929688 9.824219 23.75 16.960938 23.75 25.730469 C 23.75 34.503906 30.929688 41.640625 39.753906 41.640625 L 48.3125 41.640625 C 52.925781 41.640625 56.679688 45.371094 56.679688 49.957031 C 56.679688 54.542969 52.925781 58.28125 48.3125 58.28125 L 39.753906 58.28125 C 35.140625 58.28125 31.386719 54.542969 31.386719 49.957031 L 23.75 49.957031 C 23.75 58.730469 30.929688 65.867188 39.753906 65.867188 L 40.214844 65.867188 L 40.214844 73.878906 L 47.851562 73.878906 L 47.851562 65.867188 L 48.3125 65.867188 C 57.136719 65.867188 64.316406 58.730469 64.316406 49.957031 C 64.316406 41.1875 57.136719 34.054688 48.3125 34.054688 Z M 48.3125 34.054688 " fill-opacity="1" fill-rule="nonzero"/></g><g fill="#000000" fill-opacity="1"><g transform="translate(67.555951, 38.395971)"><g><path d="M 11.578125 -17.125 L 11.578125 -15.3125 L 4.125 -15.3125 L 4.125 -9.53125 L 10.171875 -9.53125 L 10.171875 -7.71875 L 4.125 -7.71875 L 4.125 0 L 1.890625 0 L 1.890625 -17.125 Z M 11.578125 -17.125 "/></g></g></g><g fill="#000000" fill-opacity="1"><g transform="translate(79.945905, 38.395971)"><g><path d="M 4.125 -17.125 L 4.125 0 L 1.890625 0 L 1.890625 -17.125 Z M 4.125 -17.125 "/></g></g></g><g fill="#000000" fill-opacity="1"><g transform="translate(85.993383, 38.395971)"><g><path d="M 15.359375 0 L 13.125 0 L 4.125 -13.640625 L 4.125 0 L 1.890625 0 L 1.890625 -17.15625 L 4.125 -17.15625 L 13.125 -3.546875 L 13.125 -17.15625 L 15.359375 -17.15625 Z M 15.359375 0 "/></g></g></g><g fill="#000000" fill-opacity="1"><g transform="translate(103.275399, 38.395971)"><g><path d="M 12.015625 -3.8125 L 4.546875 -3.8125 L 3.171875 0 L 0.8125 0 L 7 -17.03125 L 9.578125 -17.03125 L 15.75 0 L 13.390625 0 Z M 11.375 -5.625 L 8.28125 -14.28125 L 5.1875 -5.625 Z M 11.375 -5.625 "/></g></g></g><g fill="#000000" fill-opacity="1"><g transform="translate(119.844504, 38.395971)"><g><path d="M 15.359375 0 L 13.125 0 L 4.125 -13.640625 L 4.125 0 L 1.890625 0 L 1.890625 -17.15625 L 4.125 -17.15625 L 13.125 -3.546875 L 13.125 -17.15625 L 15.359375 -17.15625 Z M 15.359375 0 "/></g></g></g><g fill="#000000" fill-opacity="1"><g transform="translate(137.126521, 38.395971)"><g><path d="M 1.0625 -8.578125 C 1.0625 -10.242188 1.4375 -11.742188 2.1875 -13.078125 C 2.9375 -14.421875 3.960938 -15.46875 5.265625 -16.21875 C 6.566406 -16.976562 8.015625 -17.359375 9.609375 -17.359375 C 11.472656 -17.359375 13.101562 -16.90625 14.5 -16 C 15.894531 -15.101562 16.910156 -13.828125 17.546875 -12.171875 L 14.875 -12.171875 C 14.394531 -13.203125 13.707031 -13.992188 12.8125 -14.546875 C 11.925781 -15.109375 10.859375 -15.390625 9.609375 -15.390625 C 8.410156 -15.390625 7.335938 -15.109375 6.390625 -14.546875 C 5.441406 -13.992188 4.695312 -13.203125 4.15625 -12.171875 C 3.613281 -11.148438 3.34375 -9.953125 3.34375 -8.578125 C 3.34375 -7.210938 3.613281 -6.019531 4.15625 -5 C 4.695312 -3.976562 5.441406 -3.1875 6.390625 -2.625 C 7.335938 -2.070312 8.410156 -1.796875 9.609375 -1.796875 C 10.859375 -1.796875 11.925781 -2.066406 12.8125 -2.609375 C 13.707031 -3.160156 14.394531 -3.953125 14.875 -4.984375 L 17.546875 -4.984375 C 16.910156 -3.347656 15.894531 -2.082031 14.5 -1.1875 C 13.101562 -0.300781 11.472656 0.140625 9.609375 0.140625 C 8.015625 0.140625 6.566406 -0.226562 5.265625 -0.96875 C 3.960938 -1.71875 2.9375 -2.753906 2.1875 -4.078125 C 1.4375 -5.410156 1.0625 -6.910156 1.0625 -8.578125 Z M 1.0625 -8.578125 "/></g></g></g><g fill="#000000" fill-opacity="1"><g transform="translate(156.104784, 38.395971)"><g><path d="M 4.125 -15.3125 L 4.125 -9.578125 L 10.375 -9.578125 L 10.375 -7.734375 L 4.125 -7.734375 L 4.125 -1.84375 L 11.109375 -1.84375 L 11.109375 0 L 1.890625 0 L 1.890625 -17.15625 L 11.109375 -17.15625 L 11.109375 -15.3125 Z M 4.125 -15.3125 "/></g></g></g><g fill="#000000" fill-opacity="1"><g transform="translate(67.555951, 66.976825)"><g><path d="M 1.0625 -8.578125 C 1.0625 -10.242188 1.4375 -11.742188 2.1875 -13.078125 C 2.9375 -14.421875 3.960938 -15.46875 5.265625 -16.21875 C 6.566406 -16.976562 8.015625 -17.359375 9.609375 -17.359375 C 11.472656 -17.359375 13.101562 -16.90625 14.5 -16 C 15.894531 -15.101562 16.910156 -13.828125 17.546875 -12.171875 L 14.875 -12.171875 C 14.394531 -13.203125 13.707031 -13.992188 12.8125 -14.546875 C 11.925781 -15.109375 10.859375 -15.390625 9.609375 -15.390625 C 8.410156 -15.390625 7.335938 -15.109375 6.390625 -14.546875 C 5.441406 -13.992188 4.695312 -13.203125 4.15625 -12.171875 C 3.613281 -11.148438 3.34375 -9.953125 3.34375 -8.578125 C 3.34375 -7.210938 3.613281 -6.019531 4.15625 -5 C 4.695312 -3.976562 5.441406 -3.1875 6.390625 -2.625 C 7.335938 -2.070312 8.410156 -1.796875 9.609375 -1.796875 C 10.859375 -1.796875 11.925781 -2.066406 12.8125 -2.609375 C 13.707031 -3.160156 14.394531 -3.953125 14.875 -4.984375 L 17.546875 -4.984375 C 16.910156 -3.347656 15.894531 -2.082031 14.5 -1.1875 C 13.101562 -0.300781 11.472656 0.140625 9.609375 0.140625 C 8.015625 0.140625 6.566406 -0.226562 5.265625 -0.96875 C 3.960938 -1.71875 2.9375 -2.753906 2.1875 -4.078125 C 1.4375 -5.410156 1.0625 -6.910156 1.0625 -8.578125 Z M 1.0625 -8.578125 "/></g></g></g><g fill="#000000" fill-opacity="1"><g transform="translate(86.534214, 66.976825)"><g><path d="M 9.65625 0.171875 C 8.070312 0.171875 6.625 -0.195312 5.3125 -0.9375 C 4 -1.6875 2.960938 -2.726562 2.203125 -4.0625 C 1.441406 -5.40625 1.0625 -6.910156 1.0625 -8.578125 C 1.0625 -10.242188 1.441406 -11.742188 2.203125 -13.078125 C 2.960938 -14.421875 4 -15.460938 5.3125 -16.203125 C 6.625 -16.953125 8.070312 -17.328125 9.65625 -17.328125 C 11.257812 -17.328125 12.71875 -16.953125 14.03125 -16.203125 C 15.34375 -15.460938 16.375 -14.425781 17.125 -13.09375 C 17.882812 -11.769531 18.265625 -10.265625 18.265625 -8.578125 C 18.265625 -6.890625 17.882812 -5.378906 17.125 -4.046875 C 16.375 -2.722656 15.34375 -1.6875 14.03125 -0.9375 C 12.71875 -0.195312 11.257812 0.171875 9.65625 0.171875 Z M 9.65625 -1.765625 C 10.851562 -1.765625 11.929688 -2.039062 12.890625 -2.59375 C 13.847656 -3.15625 14.597656 -3.953125 15.140625 -4.984375 C 15.691406 -6.015625 15.96875 -7.210938 15.96875 -8.578125 C 15.96875 -9.953125 15.691406 -11.148438 15.140625 -12.171875 C 14.597656 -13.203125 13.851562 -13.992188 12.90625 -14.546875 C 11.957031 -15.109375 10.875 -15.390625 9.65625 -15.390625 C 8.445312 -15.390625 7.363281 -15.109375 6.40625 -14.546875 C 5.457031 -13.992188 4.707031 -13.203125 4.15625 -12.171875 C 3.613281 -11.148438 3.34375 -9.953125 3.34375 -8.578125 C 3.34375 -7.210938 3.613281 -6.015625 4.15625 -4.984375 C 4.707031 -3.953125 5.460938 -3.15625 6.421875 -2.59375 C 7.378906 -2.039062 8.457031 -1.765625 9.65625 -1.765625 Z M 9.65625 -1.765625 "/></g></g></g><g fill="#000000" fill-opacity="1"><g transform="translate(105.856638, 66.976825)"><g><path d="M 19.265625 -17.015625 L 19.265625 0 L 17.03125 0 L 17.03125 -12.6875 L 11.375 0 L 9.8125 0 L 4.125 -12.703125 L 4.125 0 L 1.890625 0 L 1.890625 -17.015625 L 4.296875 -17.015625 L 10.59375 -2.953125 L 16.890625 -17.015625 Z M 19.265625 -17.015625 "/></g></g></g><g fill="#000000" fill-opacity="1"><g transform="translate(127.022805, 66.976825)"><g><path d="M 13.34375 -12.109375 C 13.34375 -10.691406 12.851562 -9.507812 11.875 -8.5625 C 10.90625 -7.625 9.421875 -7.15625 7.421875 -7.15625 L 4.125 -7.15625 L 4.125 0 L 1.890625 0 L 1.890625 -17.125 L 7.421875 -17.125 C 9.359375 -17.125 10.828125 -16.65625 11.828125 -15.71875 C 12.835938 -14.789062 13.34375 -13.585938 13.34375 -12.109375 Z M 7.421875 -9 C 8.671875 -9 9.585938 -9.269531 10.171875 -9.8125 C 10.765625 -10.351562 11.0625 -11.117188 11.0625 -12.109375 C 11.0625 -14.222656 9.847656 -15.28125 7.421875 -15.28125 L 4.125 -15.28125 L 4.125 -9 Z M 7.421875 -9 "/></g></g></g><g fill="#000000" fill-opacity="1"><g transform="translate(141.256503, 66.976825)"><g><path d="M 12.015625 -3.8125 L 4.546875 -3.8125 L 3.171875 0 L 0.8125 0 L 7 -17.03125 L 9.578125 -17.03125 L 15.75 0 L 13.390625 0 Z M 11.375 -5.625 L 8.28125 -14.28125 L 5.1875 -5.625 Z M 11.375 -5.625 "/></g></g></g><g fill="#000000" fill-opacity="1"><g transform="translate(157.825608, 66.976825)"><g><path d="M 15.359375 0 L 13.125 0 L 4.125 -13.640625 L 4.125 0 L 1.890625 0 L 1.890625 -17.15625 L 4.125 -17.15625 L 13.125 -3.546875 L 13.125 -17.15625 L 15.359375 -17.15625 Z M 15.359375 0 "/></g></g></g><g fill="#000000" fill-opacity="1"><g transform="translate(175.107624, 66.976825)"><g><path d="M 13.890625 -17.125 L 8.3125 -6.46875 L 8.3125 0 L 6.078125 0 L 6.078125 -6.46875 L 0.46875 -17.125 L 2.953125 -17.125 L 7.171875 -8.453125 L 11.40625 -17.125 Z M 13.890625 -17.125 "/></g></g></g></svg>